<mxfile host="65bd71144e">
    <diagram id="mdEOsvauj4piBYovOP1l" name="Page-1">
        <mxGraphModel dx="1646" dy="582" grid="1" gridSize="10" guides="1" tooltips="1" connect="1" arrows="1" fold="1" page="1" pageScale="1" pageWidth="850" pageHeight="1100" math="0" shadow="0">
            <root>
                <mxCell id="0"/>
                <mxCell id="1" parent="0"/>
                <mxCell id="27" value="" style="rounded=0;whiteSpace=wrap;html=1;" parent="1" vertex="1">
                    <mxGeometry x="100" y="630" width="550" height="50" as="geometry"/>
                </mxCell>
                <mxCell id="47" style="edgeStyle=none;html=1;exitX=0.5;exitY=1;exitDx=0;exitDy=0;entryX=0.5;entryY=0;entryDx=0;entryDy=0;" parent="1" source="2" target="39" edge="1">
                    <mxGeometry relative="1" as="geometry"/>
                </mxCell>
                <mxCell id="2" value="" style="rounded=0;whiteSpace=wrap;html=1;" parent="1" vertex="1">
                    <mxGeometry x="100" y="460" width="260" height="50" as="geometry"/>
                </mxCell>
                <mxCell id="3" value="2" style="rounded=0;whiteSpace=wrap;html=1;" parent="1" vertex="1">
                    <mxGeometry x="110" y="470" width="40" height="30" as="geometry"/>
                </mxCell>
                <mxCell id="5" value="6" style="rounded=0;whiteSpace=wrap;html=1;" parent="1" vertex="1">
                    <mxGeometry x="160" y="470" width="40" height="30" as="geometry"/>
                </mxCell>
                <mxCell id="6" value="9" style="rounded=0;whiteSpace=wrap;html=1;" parent="1" vertex="1">
                    <mxGeometry x="210" y="470" width="40" height="30" as="geometry"/>
                </mxCell>
                <mxCell id="7" value="3" style="rounded=0;whiteSpace=wrap;html=1;" parent="1" vertex="1">
                    <mxGeometry x="260" y="470" width="40" height="30" as="geometry"/>
                </mxCell>
                <mxCell id="8" value="8" style="rounded=0;whiteSpace=wrap;html=1;" parent="1" vertex="1">
                    <mxGeometry x="310" y="470" width="40" height="30" as="geometry"/>
                </mxCell>
                <mxCell id="42" style="edgeStyle=none;html=1;exitX=0.5;exitY=1;exitDx=0;exitDy=0;entryX=0.5;entryY=0;entryDx=0;entryDy=0;" parent="1" source="9" target="40" edge="1">
                    <mxGeometry relative="1" as="geometry"/>
                </mxCell>
                <mxCell id="9" value="" style="rounded=0;whiteSpace=wrap;html=1;" parent="1" vertex="1">
                    <mxGeometry x="390" y="460" width="260" height="50" as="geometry"/>
                </mxCell>
                <mxCell id="10" value="1" style="rounded=0;whiteSpace=wrap;html=1;" parent="1" vertex="1">
                    <mxGeometry x="400" y="470" width="40" height="30" as="geometry"/>
                </mxCell>
                <mxCell id="11" value="7" style="rounded=0;whiteSpace=wrap;html=1;" parent="1" vertex="1">
                    <mxGeometry x="450" y="470" width="40" height="30" as="geometry"/>
                </mxCell>
                <mxCell id="12" value="5" style="rounded=0;whiteSpace=wrap;html=1;" parent="1" vertex="1">
                    <mxGeometry x="500" y="470" width="40" height="30" as="geometry"/>
                </mxCell>
                <mxCell id="13" value="10" style="rounded=0;whiteSpace=wrap;html=1;" parent="1" vertex="1">
                    <mxGeometry x="550" y="470" width="40" height="30" as="geometry"/>
                </mxCell>
                <mxCell id="14" value="4" style="rounded=0;whiteSpace=wrap;html=1;" parent="1" vertex="1">
                    <mxGeometry x="600" y="470" width="40" height="30" as="geometry"/>
                </mxCell>
                <UserObject label="&lt;b&gt;Process Cyan's virtual memory&lt;/b&gt;" placeholders="1" name="Variable" id="15">
                    <mxCell style="text;html=1;strokeColor=none;fillColor=none;align=center;verticalAlign=middle;whiteSpace=wrap;overflow=hidden;" parent="1" vertex="1">
                        <mxGeometry x="100" y="430" width="260" height="20" as="geometry"/>
                    </mxCell>
                </UserObject>
                <UserObject label="&lt;b&gt;Process Lina's virtual memory&lt;/b&gt;" placeholders="1" name="Variable" id="16">
                    <mxCell style="text;html=1;strokeColor=none;fillColor=none;align=center;verticalAlign=middle;whiteSpace=wrap;overflow=hidden;" parent="1" vertex="1">
                        <mxGeometry x="390" y="430" width="260" height="20" as="geometry"/>
                    </mxCell>
                </UserObject>
                <mxCell id="17" value="1" style="rounded=0;whiteSpace=wrap;html=1;" parent="1" vertex="1">
                    <mxGeometry x="130" y="640" width="40" height="30" as="geometry"/>
                </mxCell>
                <mxCell id="18" value="2" style="rounded=0;whiteSpace=wrap;html=1;" parent="1" vertex="1">
                    <mxGeometry x="180" y="640" width="40" height="30" as="geometry"/>
                </mxCell>
                <mxCell id="19" value="3" style="rounded=0;whiteSpace=wrap;html=1;" parent="1" vertex="1">
                    <mxGeometry x="230" y="640" width="40" height="30" as="geometry"/>
                </mxCell>
                <mxCell id="20" value="4" style="rounded=0;whiteSpace=wrap;html=1;" parent="1" vertex="1">
                    <mxGeometry x="280" y="640" width="40" height="30" as="geometry"/>
                </mxCell>
                <mxCell id="21" value="5" style="rounded=0;whiteSpace=wrap;html=1;" parent="1" vertex="1">
                    <mxGeometry x="330" y="640" width="40" height="30" as="geometry"/>
                </mxCell>
                <mxCell id="22" value="6" style="rounded=0;whiteSpace=wrap;html=1;" parent="1" vertex="1">
                    <mxGeometry x="380" y="640" width="40" height="30" as="geometry"/>
                </mxCell>
                <mxCell id="23" value="7" style="rounded=0;whiteSpace=wrap;html=1;" parent="1" vertex="1">
                    <mxGeometry x="430" y="640" width="40" height="30" as="geometry"/>
                </mxCell>
                <mxCell id="24" value="8" style="rounded=0;whiteSpace=wrap;html=1;" parent="1" vertex="1">
                    <mxGeometry x="480" y="640" width="40" height="30" as="geometry"/>
                </mxCell>
                <mxCell id="25" value="9" style="rounded=0;whiteSpace=wrap;html=1;" parent="1" vertex="1">
                    <mxGeometry x="530" y="640" width="40" height="30" as="geometry"/>
                </mxCell>
                <mxCell id="26" value="10" style="rounded=0;whiteSpace=wrap;html=1;" parent="1" vertex="1">
                    <mxGeometry x="580" y="640" width="40" height="30" as="geometry"/>
                </mxCell>
                <mxCell id="38" value="Physical Memory" style="text;strokeColor=none;fillColor=none;html=1;fontSize=12;fontStyle=1;verticalAlign=middle;align=center;" parent="1" vertex="1">
                    <mxGeometry x="330" y="690" width="100" height="40" as="geometry"/>
                </mxCell>
                <mxCell id="46" style="edgeStyle=none;html=1;entryX=0.235;entryY=-0.04;entryDx=0;entryDy=0;entryPerimeter=0;" parent="1" source="39" target="27" edge="1">
                    <mxGeometry relative="1" as="geometry"/>
                </mxCell>
                <mxCell id="39" value="Cyan's page table" style="rounded=0;whiteSpace=wrap;html=1;" parent="1" vertex="1">
                    <mxGeometry x="165" y="543" width="130" height="50" as="geometry"/>
                </mxCell>
                <mxCell id="43" style="edgeStyle=none;html=1;exitX=0.5;exitY=1;exitDx=0;exitDy=0;" parent="1" source="40" edge="1">
                    <mxGeometry relative="1" as="geometry">
                        <mxPoint x="520" y="630" as="targetPoint"/>
                    </mxGeometry>
                </mxCell>
                <mxCell id="40" value="Lina's page table" style="rounded=0;whiteSpace=wrap;html=1;" parent="1" vertex="1">
                    <mxGeometry x="455" y="543" width="130" height="50" as="geometry"/>
                </mxCell>
                <mxCell id="45" style="edgeStyle=none;html=1;exitX=0.5;exitY=1;exitDx=0;exitDy=0;entryX=0.5;entryY=0;entryDx=0;entryDy=0;" parent="1" source="41" target="27" edge="1">
                    <mxGeometry relative="1" as="geometry"/>
                </mxCell>
                <mxCell id="41" value="Kernel page table" style="rounded=0;whiteSpace=wrap;html=1;" parent="1" vertex="1">
                    <mxGeometry x="310" y="543" width="130" height="50" as="geometry"/>
                </mxCell>
            </root>
        </mxGraphModel>
    </diagram>
</mxfile>